<?xml version="1.0" encoding="UTF-8"?>
<svg width="1146px" height="769px" viewBox="0 0 1146 769" version="1.1" xmlns="http://www.w3.org/2000/svg" xmlns:xlink="http://www.w3.org/1999/xlink">
    <!-- Generator: Sketch 52.5 (67469) - http://www.bohemiancoding.com/sketch -->
    <title>undraw_security_o890</title>
    <desc>Created with Sketch.</desc>
    <defs>
        <linearGradient x1="49.9994739%" y1="100%" x2="49.9994739%" y2="0%" id="linearGradient-1">
            <stop stop-color="#808080" stop-opacity="0.25" offset="0%"></stop>
            <stop stop-color="#808080" stop-opacity="0.12" offset="54%"></stop>
            <stop stop-color="#808080" stop-opacity="0.1" offset="100%"></stop>
        </linearGradient>
    </defs>
    <g id="Page-1" stroke="none" stroke-width="1" fill="none" fill-rule="evenodd">
        <g id="undraw_security_o890">
            <path d="M1127.43,551.22 C1100.86,606.03 1046.91,642.68 991,666.85 C915.73,699.4 832.84,712.31 751.09,706.85 C736.763333,705.896667 722.48,704.373333 708.24,702.28 C658.783959,695.064996 610.567802,681.024526 564.97,660.56 C551.81,654.633333 538.916667,648.163333 526.29,641.15 C505.200247,629.460625 484.993081,616.245419 465.83,601.61 C461.01,597.93 456.256667,594.156667 451.57,590.29 C448.32,587.61 445.1,584.87 441.83,582.21 C434.93,576.6 427.83,571.27 419.91,567.28 C417.520303,566.07529 415.070422,564.993871 412.57,564.04 C387.49,554.5 358.57,558.1 332.46,565.54 C312.6,571.2 293.24,578.95 273.4,584.48 C264.575051,587.01462 255.582906,588.925993 246.49,590.2 C226.188752,592.769889 205.572503,590.959233 186.03,584.89 L184.36,584.37 C181.56,583.49 178.783333,582.526667 176.03,581.48 L174.36,580.84 C171.693333,579.813333 169.083333,578.71 166.53,577.53 L164.86,576.77 C162.193333,575.53 159.583333,574.22 157.03,572.84 C156.11,572.36 155.2,571.84 154.3,571.35 C139.772671,563.23636 126.567557,552.95485 115.14,540.86 C114.81,540.53 114.5,540.19 114.14,539.86 C112.55,538.14 110.99,536.39 109.48,534.6 C108.92,533.94 108.36,533.28 107.81,532.6 C106.016667,530.413333 104.286667,528.176667 102.62,525.89 C102.37,525.56 102.13,525.22 101.89,524.89 C95.0615666,515.443405 89.4004779,505.205766 85.03,494.4 C84.89,494.07 84.76,493.73 84.64,493.4 C83.3066667,489.966667 82.09,486.476667 80.99,482.93 C80.54,481.45 80.11,479.93 79.73,478.45 C79.6,478.01 79.48,477.56 79.37,477.12 C73.85,455.39 73.22,432.8 73.22,410.34 C73.22,407.72 73.22,405.103333 73.22,402.49 C73.38,366.16 73.94,329.21 79.3,293.38 C79.3,293.13 79.37,292.88 79.41,292.64 C81.203961,280.577799 83.6441385,268.620596 86.72,256.82 C89.93919,244.437959 94.0533439,232.306051 99.03,220.52 C111.36,191.52 129.29,165.13 149.2,140.67 C199.35,79.12 265.12,27.45 342.1,8.11 C425.05,-12.72 517.24,7.24 584.15,60.51 C604.55,76.75 622.88,95.98 645.79,108.43 C665.79,119.27 689.2,123.76 710.62,115.23 C728.32,108.18 739.84,104.68 759.72,105.75 C800.876121,108.078273 841.448918,116.576447 880.08,130.96 C881.64,131.53 883.2,132.12 884.75,132.71 C985.46,171.24 1072.03,247.79 1117.03,346.16 C1118.22333,348.76 1119.38,351.38 1120.5,354.02 C1147.33,416.69 1157.03,490.14 1127.43,551.22 Z" id="Path" fill="#5F91D6" opacity="0.1"></path>
            <ellipse id="Oval" fill="#5F91D6" opacity="0.1" cx="120.3" cy="728.81" rx="88.28" ry="14.18"></ellipse>
            <rect id="Rectangle" fill="url(#linearGradient-1)" x="116.14" y="107.75" width="950.33" height="538.33" rx="12.49"></rect>
            <rect id="Rectangle" fill="#FFFFFF" x="117.65" y="115.32" width="947.42" height="528.97" rx="12.49"></rect>
            <rect id="Rectangle" fill="#FFFFFF" x="117.65" y="115.32" width="947.42" height="528.97" rx="12.49"></rect>
            <rect id="Rectangle" fill="#FFFFFF" opacity="0.04" x="117.65" y="115.32" width="947.42" height="528.97" rx="12.49"></rect>
            <path d="M1060.26,109.25 L122.46,109.25 C119.80351,109.25 117.65,111.40351 117.65,114.06 L117.65,134.39 L1065.03,134.39 L1065.03,114.06 C1065.03009,111.419053 1062.90086,109.271962 1060.26,109.25 Z" id="Path" fill="#5A5773"></path>
            <g id="6c975d28-8d47-4ade-9154-b3b78f637b65" transform="translate(130.000000, 115.000000)" fill="#FFFFFF">
                <circle id="Oval" cx="6.57" cy="6.82" r="6.5"></circle>
                <circle id="Oval" cx="24.07" cy="6.82" r="6.5"></circle>
                <circle id="Oval" cx="41.57" cy="6.82" r="6.5"></circle>
            </g>
            <rect id="Rectangle" fill="#5F91D6" opacity="0.2" x="195.68" y="181.67" width="254.25" height="21.58"></rect>
            <rect id="Rectangle" fill="#5A5773" opacity="0.1" x="195.68" y="268.2" width="791.36" height="331.96"></rect>
            <path d="M659.03,289.85 L645.48,289.85 L645.48,263.53 C645.48,233.83 621.8,209.14 592.1,208.69 C577.634965,208.538024 563.707656,214.166285 553.409535,224.32547 C543.111414,234.484656 537.294507,248.334235 537.25,262.8 L537.25,289.85 L523.73,289.85 C511.291933,289.888432 501.218432,299.961933 501.18,312.4 L501.18,420.62 C501.218432,433.058067 511.291933,443.131568 523.73,443.17 L659.03,443.17 C671.466434,443.131541 681.537057,433.05645 681.57,420.62 L681.57,312.4 C681.537057,299.96355 671.466434,289.888459 659.03,289.85 Z M599.28,360.2 L599.28,398.96 C599.307128,403.218894 596.027645,406.769481 591.78,407.08 C589.620531,407.181123 587.51377,406.393991 585.949652,404.901656 C584.385534,403.409321 583.500367,401.341835 583.5,399.18 L583.5,360.18 C575.966768,356.506189 571.966039,348.119169 573.851254,339.952625 C575.736468,331.786081 583.008683,326.001375 591.39,326.001375 C599.771317,326.001375 607.043532,331.786081 608.928746,339.952625 C610.813961,348.119169 606.813232,356.506189 599.28,360.18 L599.28,360.2 Z M629.72,289.85 L553.03,289.85 L553.03,262.8 C553.03,241.630926 570.190926,224.47 591.36,224.47 C612.529074,224.47 629.69,241.630926 629.69,262.8 L629.72,289.85 Z" id="Shape" fill="#000000" fill-rule="nonzero" opacity="0.1"></path>
            <path d="M659.03,287.85 L645.48,287.85 L645.48,261.53 C645.48,231.83 621.8,207.14 592.1,206.69 C577.634965,206.538024 563.707656,212.166285 553.409535,222.32547 C543.111414,232.484656 537.294507,246.334235 537.25,260.8 L537.25,287.85 L523.73,287.85 C511.291933,287.888432 501.218432,297.961933 501.18,310.4 L501.18,418.62 C501.218432,431.058067 511.291933,441.131568 523.73,441.17 L659.03,441.17 C671.466434,441.131541 681.537057,431.05645 681.57,418.62 L681.57,310.4 C681.537057,297.96355 671.466434,287.888459 659.03,287.85 Z M599.28,358.2 L599.28,396.96 C599.307128,401.218894 596.027645,404.769481 591.78,405.08 C589.620531,405.181123 587.51377,404.393991 585.949652,402.901656 C584.385534,401.409321 583.500367,399.341835 583.5,397.18 L583.5,358.18 C575.966768,354.506189 571.966039,346.119169 573.851254,337.952625 C575.736468,329.786081 583.008683,324.001375 591.39,324.001375 C599.771317,324.001375 607.043532,329.786081 608.928746,337.952625 C610.813961,346.119169 606.813232,354.506189 599.28,358.18 L599.28,358.2 Z M629.72,287.85 L553.03,287.85 L553.03,260.8 C553.03,239.630926 570.190926,222.47 591.36,222.47 C612.529074,222.47 629.69,239.630926 629.69,260.8 L629.72,287.85 Z" id="Shape" fill="#5F91D6" fill-rule="nonzero"></path>
            <rect id="Rectangle" fill="#5A5773" opacity="0.1" x="906.94" y="236.25" width="80.1" height="18.91"></rect>
            <path d="M864.4,453.06 C864.326433,454.407348 864.135714,455.745733 863.83,457.06 C863.83,456.69 863.83,456.48 863.75,456.45 C863.45,456.37 863.81,454.84 864.4,453.06 Z" id="Path" fill="#000000" opacity="0.1"></path>
            <path d="M965.5,764.3 C965.5,764.3 984.34,765.76 986.21,767.22 C988.08,768.68 965.5,764.3 965.5,764.3 Z" id="Path" stroke="#5F91D6" fill="#000000" opacity="0.1"></path>
            <path d="M853.33,749.49 C853.33,749.49 857.33,754.49 855.63,756.79 C853.93,759.09 853.33,749.49 853.33,749.49 Z" id="Path" stroke="#5F91D6" fill="#000000" opacity="0.1"></path>
            <path d="M858.13,767.52 C858.13,767.52 865.43,762.72 868.35,765.91 C871.27,769.1 858.13,767.52 858.13,767.52 Z" id="Path" stroke="#5F91D6" fill="#000000" opacity="0.1"></path>
            <rect id="Rectangle" fill="#535461" x="117.46" y="457.19" width="5.68" height="127.9"></rect>
            <path d="M158.84,584.7 L158.48,590.46 L157.98,598.59 L157.77,601.98 L157.27,610.12 L157.05,613.51 L156.55,621.64 L150.82,714.11 C150.312673,722.370204 143.465768,728.809711 135.19,728.81 L105.41,728.81 C97.1361174,728.809398 90.2922484,722.368625 89.79,714.11 L84.03,621.64 L83.53,613.51 L83.32,610.12 L82.83,601.96 L82.62,598.57 L82.12,590.44 L81.76,584.68 C81.6219804,582.445589 82.4137111,580.253507 83.9476619,578.622975 C85.4816127,576.992442 87.6213307,576.068502 89.86,576.07 L150.75,576.07 C152.991578,576.067964 155.133778,576.994927 156.666823,578.630301 C158.199868,580.265676 158.986672,582.463224 158.84,584.7 Z" id="Path" fill="#3F3D56"></path>
            <polygon id="Path" fill="#9D9CB5" points="158.48 590.46 157.98 598.59 82.61 598.59 82.11 590.46"></polygon>
            <polygon id="Path" fill="#9D9CB5" points="157.77 601.98 157.27 610.12 83.33 610.12 82.82 601.98"></polygon>
            <polygon id="Path" fill="#9D9CB5" points="157.05 613.51 156.55 621.64 84.05 621.64 83.54 613.51"></polygon>
            <path d="M73.44,505.13 C106.52,529.06 120.3,566.5 120.3,566.5 C120.3,566.5 80.43,565.13 47.3,541.2 C14.17,517.27 0.44,479.83 0.44,479.83 C0.44,479.83 40.35,481.2 73.44,505.13 Z" id="Path" fill="#5F91D6"></path>
            <path d="M0.49,479.83 C0.49,479.83 41.87,502.83 55.14,521.83 C68.41,540.83 120.3,566.51 120.3,566.51" id="Path" stroke="#535461" stroke-width="2"></path>
            <path d="M94.79,456.96 C112.79,469.96 120.3,490.36 120.3,490.36 C120.3,490.36 98.6,489.62 80.59,476.59 C62.58,463.56 55.09,443.19 55.09,443.19 C55.09,443.19 76.79,443.88 94.79,456.96 Z" id="Path" fill="#5F91D6"></path>
            <path d="M55.09,443.14 C55.09,443.14 77.61,455.64 84.83,465.99 C92.05,476.34 120.3,490.31 120.3,490.31" id="Path" stroke="#535461" stroke-width="2"></path>
            <path d="M146.47,489.28 C125.78,512.01 121.41,541.71 121.41,541.71 C121.41,541.71 150.57,534.56 171.25,511.83 C191.93,489.1 196.31,459.39 196.31,459.39 C196.31,459.39 167.15,466.54 146.47,489.28 Z" id="Path" fill="#5F91D6"></path>
            <path d="M196.31,459.39 C196.31,459.39 169.37,482.69 162.52,498.75 C155.67,514.81 121.41,541.75 121.41,541.75" id="Path" stroke="#535461" stroke-width="2"></path>
        </g>
    </g>
</svg>